<?xml version="1.0" encoding="utf-8" standalone="no"?>
<!DOCTYPE svg PUBLIC "-//W3C//DTD SVG 1.1//EN"
  "http://www.w3.org/Graphics/SVG/1.1/DTD/svg11.dtd">
<svg xmlns:xlink="http://www.w3.org/1999/xlink" width="252pt" height="201.6pt" viewBox="0 0 252 201.6" xmlns="http://www.w3.org/2000/svg" version="1.1">
 <metadata>
  <rdf:RDF xmlns:dc="http://purl.org/dc/elements/1.1/" xmlns:cc="http://creativecommons.org/ns#" xmlns:rdf="http://www.w3.org/1999/02/22-rdf-syntax-ns#">
   <cc:Work>
    <dc:type rdf:resource="http://purl.org/dc/dcmitype/StillImage"/>
    <dc:date>2026-09-21T07:13:41.896806</dc:date>
    <dc:format>image/svg+xml</dc:format>
    <dc:creator>
     <cc:Agent>
      <dc:title>Matplotlib v3.10.8, https://matplotlib.org/</dc:title>
     </cc:Agent>
    </dc:creator>
   </cc:Work>
  </rdf:RDF>
 </metadata>
 <defs>
  <style type="text/css">*{stroke-linejoin: round; stroke-linecap: butt}</style>
 </defs>
 <g id="figure_1">
  <g id="patch_1">
   <path d="M 0 201.6 
L 252 201.6 
L 252 0 
L 0 0 
z
" style="fill: #ffffff"/>
  </g>
  <g id="axes_1">
   <g id="patch_2">
    <path d="M 37.32 168.36 
L 243.9025 168.36 
L 243.9025 39.04 
L 37.32 39.04 
z
" style="fill: #ffffff"/>
   </g>
   <g id="matplotlib.axis_1">
    <g id="xtick_1">
     <g id="line2d_1">
      <defs>
       <path id="m485a6d076c" d="M 0 0 
L 0 3.5 
" style="stroke: #000000; stroke-width: 0.6"/>
      </defs>
      <g>
       <use xlink:href="#m485a6d076c" x="40.189201" y="168.36" style="stroke: #000000; stroke-width: 0.6"/>
      </g>
     </g>
     <g id="text_1">
      <!-- 0 -->
      <g transform="translate(37.962326 180.678906) scale(0.07 -0.07)">
       <defs>
        <path id="DejaVuSans-30" d="M 2034 4250 
Q 1547 4250 1301 3770 
Q 1056 3291 1056 2328 
Q 1056 1369 1301 889 
Q 1547 409 2034 409 
Q 2525 409 2770 889 
Q 3016 1369 3016 2328 
Q 3016 3291 2770 3770 
Q 2525 4250 2034 4250 
z
M 2034 4750 
Q 2819 4750 3233 4129 
Q 3647 3509 3647 2328 
Q 3647 1150 3233 529 
Q 2819 -91 2034 -91 
Q 1250 -91 836 529 
Q 422 1150 422 2328 
Q 422 3509 836 4129 
Q 1250 4750 2034 4750 
z
" transform="scale(0.015625)"/>
       </defs>
       <use xlink:href="#DejaVuSans-30"/>
      </g>
     </g>
    </g>
    <g id="xtick_2">
     <g id="line2d_2">
      <g>
       <use xlink:href="#m485a6d076c" x="80.358021" y="168.36" style="stroke: #000000; stroke-width: 0.6"/>
      </g>
     </g>
     <g id="text_2">
      <!-- 7 -->
      <g transform="translate(78.131146 180.678906) scale(0.07 -0.07)">
       <defs>
        <path id="DejaVuSans-37" d="M 525 4666 
L 3525 4666 
L 3525 4397 
L 1831 0 
L 1172 0 
L 2766 4134 
L 525 4134 
L 525 4666 
z
" transform="scale(0.015625)"/>
       </defs>
       <use xlink:href="#DejaVuSans-37"/>
      </g>
     </g>
    </g>
    <g id="xtick_3">
     <g id="line2d_3">
      <g>
       <use xlink:href="#m485a6d076c" x="120.52684" y="168.36" style="stroke: #000000; stroke-width: 0.6"/>
      </g>
     </g>
     <g id="text_3">
      <!-- 14 -->
      <g transform="translate(116.07309 180.678906) scale(0.07 -0.07)">
       <defs>
        <path id="DejaVuSans-31" d="M 794 531 
L 1825 531 
L 1825 4091 
L 703 3866 
L 703 4441 
L 1819 4666 
L 2450 4666 
L 2450 531 
L 3481 531 
L 3481 0 
L 794 0 
L 794 531 
z
" transform="scale(0.015625)"/>
        <path id="DejaVuSans-34" d="M 2419 4116 
L 825 1625 
L 2419 1625 
L 2419 4116 
z
M 2253 4666 
L 3047 4666 
L 3047 1625 
L 3713 1625 
L 3713 1100 
L 3047 1100 
L 3047 0 
L 2419 0 
L 2419 1100 
L 313 1100 
L 313 1709 
L 2253 4666 
z
" transform="scale(0.015625)"/>
       </defs>
       <use xlink:href="#DejaVuSans-31"/>
       <use xlink:href="#DejaVuSans-34" transform="translate(63.623047 0)"/>
      </g>
     </g>
    </g>
    <g id="xtick_4">
     <g id="line2d_4">
      <g>
       <use xlink:href="#m485a6d076c" x="160.69566" y="168.36" style="stroke: #000000; stroke-width: 0.6"/>
      </g>
     </g>
     <g id="text_4">
      <!-- 21 -->
      <g transform="translate(156.24191 180.678906) scale(0.07 -0.07)">
       <defs>
        <path id="DejaVuSans-32" d="M 1228 531 
L 3431 531 
L 3431 0 
L 469 0 
L 469 531 
Q 828 903 1448 1529 
Q 2069 2156 2228 2338 
Q 2531 2678 2651 2914 
Q 2772 3150 2772 3378 
Q 2772 3750 2511 3984 
Q 2250 4219 1831 4219 
Q 1534 4219 1204 4116 
Q 875 4013 500 3803 
L 500 4441 
Q 881 4594 1212 4672 
Q 1544 4750 1819 4750 
Q 2544 4750 2975 4387 
Q 3406 4025 3406 3419 
Q 3406 3131 3298 2873 
Q 3191 2616 2906 2266 
Q 2828 2175 2409 1742 
Q 1991 1309 1228 531 
z
" transform="scale(0.015625)"/>
       </defs>
       <use xlink:href="#DejaVuSans-32"/>
       <use xlink:href="#DejaVuSans-31" transform="translate(63.623047 0)"/>
      </g>
     </g>
    </g>
    <g id="xtick_5">
     <g id="line2d_5">
      <g>
       <use xlink:href="#m485a6d076c" x="200.864479" y="168.36" style="stroke: #000000; stroke-width: 0.6"/>
      </g>
     </g>
     <g id="text_5">
      <!-- 28 -->
      <g transform="translate(196.410729 180.678906) scale(0.07 -0.07)">
       <defs>
        <path id="DejaVuSans-38" d="M 2034 2216 
Q 1584 2216 1326 1975 
Q 1069 1734 1069 1313 
Q 1069 891 1326 650 
Q 1584 409 2034 409 
Q 2484 409 2743 651 
Q 3003 894 3003 1313 
Q 3003 1734 2745 1975 
Q 2488 2216 2034 2216 
z
M 1403 2484 
Q 997 2584 770 2862 
Q 544 3141 544 3541 
Q 544 4100 942 4425 
Q 1341 4750 2034 4750 
Q 2731 4750 3128 4425 
Q 3525 4100 3525 3541 
Q 3525 3141 3298 2862 
Q 3072 2584 2669 2484 
Q 3125 2378 3379 2068 
Q 3634 1759 3634 1313 
Q 3634 634 3220 271 
Q 2806 -91 2034 -91 
Q 1263 -91 848 271 
Q 434 634 434 1313 
Q 434 1759 690 2068 
Q 947 2378 1403 2484 
z
M 1172 3481 
Q 1172 3119 1398 2916 
Q 1625 2713 2034 2713 
Q 2441 2713 2670 2916 
Q 2900 3119 2900 3481 
Q 2900 3844 2670 4047 
Q 2441 4250 2034 4250 
Q 1625 4250 1398 4047 
Q 1172 3844 1172 3481 
z
" transform="scale(0.015625)"/>
       </defs>
       <use xlink:href="#DejaVuSans-32"/>
       <use xlink:href="#DejaVuSans-38" transform="translate(63.623047 0)"/>
      </g>
     </g>
    </g>
    <g id="xtick_6">
     <g id="line2d_6">
      <g>
       <use xlink:href="#m485a6d076c" x="241.033299" y="168.36" style="stroke: #000000; stroke-width: 0.6"/>
      </g>
     </g>
     <g id="text_6">
      <!-- 35 -->
      <g transform="translate(236.579549 180.678906) scale(0.07 -0.07)">
       <defs>
        <path id="DejaVuSans-33" d="M 2597 2516 
Q 3050 2419 3304 2112 
Q 3559 1806 3559 1356 
Q 3559 666 3084 287 
Q 2609 -91 1734 -91 
Q 1441 -91 1130 -33 
Q 819 25 488 141 
L 488 750 
Q 750 597 1062 519 
Q 1375 441 1716 441 
Q 2309 441 2620 675 
Q 2931 909 2931 1356 
Q 2931 1769 2642 2001 
Q 2353 2234 1838 2234 
L 1294 2234 
L 1294 2753 
L 1863 2753 
Q 2328 2753 2575 2939 
Q 2822 3125 2822 3475 
Q 2822 3834 2567 4026 
Q 2313 4219 1838 4219 
Q 1578 4219 1281 4162 
Q 984 4106 628 3988 
L 628 4550 
Q 988 4650 1302 4700 
Q 1616 4750 1894 4750 
Q 2613 4750 3031 4423 
Q 3450 4097 3450 3541 
Q 3450 3153 3228 2886 
Q 3006 2619 2597 2516 
z
" transform="scale(0.015625)"/>
        <path id="DejaVuSans-35" d="M 691 4666 
L 3169 4666 
L 3169 4134 
L 1269 4134 
L 1269 2991 
Q 1406 3038 1543 3061 
Q 1681 3084 1819 3084 
Q 2600 3084 3056 2656 
Q 3513 2228 3513 1497 
Q 3513 744 3044 326 
Q 2575 -91 1722 -91 
Q 1428 -91 1123 -41 
Q 819 9 494 109 
L 494 744 
Q 775 591 1075 516 
Q 1375 441 1709 441 
Q 2250 441 2565 725 
Q 2881 1009 2881 1497 
Q 2881 1984 2565 2268 
Q 2250 2553 1709 2553 
Q 1456 2553 1204 2497 
Q 953 2441 691 2322 
L 691 4666 
z
" transform="scale(0.015625)"/>
       </defs>
       <use xlink:href="#DejaVuSans-33"/>
       <use xlink:href="#DejaVuSans-35" transform="translate(63.623047 0)"/>
      </g>
     </g>
    </g>
    <g id="text_7">
     <!-- VLM layer -->
     <g transform="translate(120.888125 192.213437) scale(0.08 -0.08)">
      <defs>
       <path id="DejaVuSans-56" d="M 1831 0 
L 50 4666 
L 709 4666 
L 2188 738 
L 3669 4666 
L 4325 4666 
L 2547 0 
L 1831 0 
z
" transform="scale(0.015625)"/>
       <path id="DejaVuSans-4c" d="M 628 4666 
L 1259 4666 
L 1259 531 
L 3531 531 
L 3531 0 
L 628 0 
L 628 4666 
z
" transform="scale(0.015625)"/>
       <path id="DejaVuSans-4d" d="M 628 4666 
L 1569 4666 
L 2759 1491 
L 3956 4666 
L 4897 4666 
L 4897 0 
L 4281 0 
L 4281 4097 
L 3078 897 
L 2444 897 
L 1241 4097 
L 1241 0 
L 628 0 
L 628 4666 
z
" transform="scale(0.015625)"/>
       <path id="DejaVuSans-20" transform="scale(0.015625)"/>
       <path id="DejaVuSans-6c" d="M 603 4863 
L 1178 4863 
L 1178 0 
L 603 0 
L 603 4863 
z
" transform="scale(0.015625)"/>
       <path id="DejaVuSans-61" d="M 2194 1759 
Q 1497 1759 1228 1600 
Q 959 1441 959 1056 
Q 959 750 1161 570 
Q 1363 391 1709 391 
Q 2188 391 2477 730 
Q 2766 1069 2766 1631 
L 2766 1759 
L 2194 1759 
z
M 3341 1997 
L 3341 0 
L 2766 0 
L 2766 531 
Q 2569 213 2275 61 
Q 1981 -91 1556 -91 
Q 1019 -91 701 211 
Q 384 513 384 1019 
Q 384 1609 779 1909 
Q 1175 2209 1959 2209 
L 2766 2209 
L 2766 2266 
Q 2766 2663 2505 2880 
Q 2244 3097 1772 3097 
Q 1472 3097 1187 3025 
Q 903 2953 641 2809 
L 641 3341 
Q 956 3463 1253 3523 
Q 1550 3584 1831 3584 
Q 2591 3584 2966 3190 
Q 3341 2797 3341 1997 
z
" transform="scale(0.015625)"/>
       <path id="DejaVuSans-79" d="M 2059 -325 
Q 1816 -950 1584 -1140 
Q 1353 -1331 966 -1331 
L 506 -1331 
L 506 -850 
L 844 -850 
Q 1081 -850 1212 -737 
Q 1344 -625 1503 -206 
L 1606 56 
L 191 3500 
L 800 3500 
L 1894 763 
L 2988 3500 
L 3597 3500 
L 2059 -325 
z
" transform="scale(0.015625)"/>
       <path id="DejaVuSans-65" d="M 3597 1894 
L 3597 1613 
L 953 1613 
Q 991 1019 1311 708 
Q 1631 397 2203 397 
Q 2534 397 2845 478 
Q 3156 559 3463 722 
L 3463 178 
Q 3153 47 2828 -22 
Q 2503 -91 2169 -91 
Q 1331 -91 842 396 
Q 353 884 353 1716 
Q 353 2575 817 3079 
Q 1281 3584 2069 3584 
Q 2775 3584 3186 3129 
Q 3597 2675 3597 1894 
z
M 3022 2063 
Q 3016 2534 2758 2815 
Q 2500 3097 2075 3097 
Q 1594 3097 1305 2825 
Q 1016 2553 972 2059 
L 3022 2063 
z
" transform="scale(0.015625)"/>
       <path id="DejaVuSans-72" d="M 2631 2963 
Q 2534 3019 2420 3045 
Q 2306 3072 2169 3072 
Q 1681 3072 1420 2755 
Q 1159 2438 1159 1844 
L 1159 0 
L 581 0 
L 581 3500 
L 1159 3500 
L 1159 2956 
Q 1341 3275 1631 3429 
Q 1922 3584 2338 3584 
Q 2397 3584 2469 3576 
Q 2541 3569 2628 3553 
L 2631 2963 
z
" transform="scale(0.015625)"/>
      </defs>
      <use xlink:href="#DejaVuSans-56"/>
      <use xlink:href="#DejaVuSans-4c" transform="translate(68.408203 0)"/>
      <use xlink:href="#DejaVuSans-4d" transform="translate(124.121094 0)"/>
      <use xlink:href="#DejaVuSans-20" transform="translate(210.400391 0)"/>
      <use xlink:href="#DejaVuSans-6c" transform="translate(242.1875 0)"/>
      <use xlink:href="#DejaVuSans-61" transform="translate(269.970703 0)"/>
      <use xlink:href="#DejaVuSans-79" transform="translate(331.25 0)"/>
      <use xlink:href="#DejaVuSans-65" transform="translate(390.429688 0)"/>
      <use xlink:href="#DejaVuSans-72" transform="translate(451.953125 0)"/>
     </g>
    </g>
   </g>
   <g id="matplotlib.axis_2">
    <g id="ytick_1">
     <g id="line2d_7">
      <path d="M 37.32 159.068991 
L 243.9025 159.068991 
" clip-path="url(#p13e697191e)" style="fill: none; stroke: #e5e5e5; stroke-width: 0.5; stroke-linecap: square"/>
     </g>
     <g id="line2d_8">
      <defs>
       <path id="m77f251edd7" d="M 0 0 
L -3.5 0 
" style="stroke: #000000; stroke-width: 0.6"/>
      </defs>
      <g>
       <use xlink:href="#m77f251edd7" x="37.32" y="159.068991" style="stroke: #000000; stroke-width: 0.6"/>
      </g>
     </g>
     <g id="text_8">
      <!-- 0.1 -->
      <g transform="translate(19.187813 161.728444) scale(0.07 -0.07)">
       <defs>
        <path id="DejaVuSans-2e" d="M 684 794 
L 1344 794 
L 1344 0 
L 684 0 
L 684 794 
z
" transform="scale(0.015625)"/>
       </defs>
       <use xlink:href="#DejaVuSans-30"/>
       <use xlink:href="#DejaVuSans-2e" transform="translate(63.623047 0)"/>
       <use xlink:href="#DejaVuSans-31" transform="translate(95.410156 0)"/>
      </g>
     </g>
    </g>
    <g id="ytick_2">
     <g id="line2d_9">
      <path d="M 37.32 131.296897 
L 243.9025 131.296897 
" clip-path="url(#p13e697191e)" style="fill: none; stroke: #e5e5e5; stroke-width: 0.5; stroke-linecap: square"/>
     </g>
     <g id="line2d_10">
      <g>
       <use xlink:href="#m77f251edd7" x="37.32" y="131.296897" style="stroke: #000000; stroke-width: 0.6"/>
      </g>
     </g>
     <g id="text_9">
      <!-- 0.2 -->
      <g transform="translate(19.187813 133.956351) scale(0.07 -0.07)">
       <use xlink:href="#DejaVuSans-30"/>
       <use xlink:href="#DejaVuSans-2e" transform="translate(63.623047 0)"/>
       <use xlink:href="#DejaVuSans-32" transform="translate(95.410156 0)"/>
      </g>
     </g>
    </g>
    <g id="ytick_3">
     <g id="line2d_11">
      <path d="M 37.32 94.584187 
L 243.9025 94.584187 
" clip-path="url(#p13e697191e)" style="fill: none; stroke: #e5e5e5; stroke-width: 0.5; stroke-linecap: square"/>
     </g>
     <g id="line2d_12">
      <g>
       <use xlink:href="#m77f251edd7" x="37.32" y="94.584187" style="stroke: #000000; stroke-width: 0.6"/>
      </g>
     </g>
     <g id="text_10">
      <!-- 0.5 -->
      <g transform="translate(19.187813 97.24364) scale(0.07 -0.07)">
       <use xlink:href="#DejaVuSans-30"/>
       <use xlink:href="#DejaVuSans-2e" transform="translate(63.623047 0)"/>
       <use xlink:href="#DejaVuSans-35" transform="translate(95.410156 0)"/>
      </g>
     </g>
    </g>
    <g id="ytick_4">
     <g id="line2d_13">
      <path d="M 37.32 66.812093 
L 243.9025 66.812093 
" clip-path="url(#p13e697191e)" style="fill: none; stroke: #e5e5e5; stroke-width: 0.5; stroke-linecap: square"/>
     </g>
     <g id="line2d_14">
      <g>
       <use xlink:href="#m77f251edd7" x="37.32" y="66.812093" style="stroke: #000000; stroke-width: 0.6"/>
      </g>
     </g>
     <g id="text_11">
      <!-- 1 -->
      <g transform="translate(25.86625 69.471547) scale(0.07 -0.07)">
       <use xlink:href="#DejaVuSans-31"/>
      </g>
     </g>
    </g>
    <g id="ytick_5">
     <g id="line2d_15">
      <path d="M 37.32 39.04 
L 243.9025 39.04 
" clip-path="url(#p13e697191e)" style="fill: none; stroke: #e5e5e5; stroke-width: 0.5; stroke-linecap: square"/>
     </g>
     <g id="line2d_16">
      <g>
       <use xlink:href="#m77f251edd7" x="37.32" y="39.04" style="stroke: #000000; stroke-width: 0.6"/>
      </g>
     </g>
     <g id="text_12">
      <!-- 2 -->
      <g transform="translate(25.86625 41.699453) scale(0.07 -0.07)">
       <use xlink:href="#DejaVuSans-32"/>
      </g>
     </g>
    </g>
    <g id="ytick_6">
     <g id="line2d_17">
      <defs>
       <path id="m69379785ca" d="M 0 0 
L -2 0 
" style="stroke: #000000; stroke-width: 0.6"/>
      </defs>
      <g>
       <use xlink:href="#m69379785ca" x="37.32" y="168.009608" style="stroke: #000000; stroke-width: 0.6"/>
      </g>
     </g>
    </g>
    <g id="ytick_7">
     <g id="line2d_18">
      <g>
       <use xlink:href="#m69379785ca" x="37.32" y="163.290435" style="stroke: #000000; stroke-width: 0.6"/>
      </g>
     </g>
    </g>
    <g id="ytick_8">
     <g id="line2d_19">
      <g>
       <use xlink:href="#m69379785ca" x="37.32" y="115.051264" style="stroke: #000000; stroke-width: 0.6"/>
      </g>
     </g>
    </g>
    <g id="ytick_9">
     <g id="line2d_20">
      <g>
       <use xlink:href="#m69379785ca" x="37.32" y="103.524804" style="stroke: #000000; stroke-width: 0.6"/>
      </g>
     </g>
    </g>
    <g id="ytick_10">
     <g id="line2d_21">
      <g>
       <use xlink:href="#m69379785ca" x="37.32" y="87.279171" style="stroke: #000000; stroke-width: 0.6"/>
      </g>
     </g>
    </g>
    <g id="ytick_11">
     <g id="line2d_22">
      <g>
       <use xlink:href="#m69379785ca" x="37.32" y="81.102868" style="stroke: #000000; stroke-width: 0.6"/>
      </g>
     </g>
    </g>
    <g id="ytick_12">
     <g id="line2d_23">
      <g>
       <use xlink:href="#m69379785ca" x="37.32" y="75.752711" style="stroke: #000000; stroke-width: 0.6"/>
      </g>
     </g>
    </g>
    <g id="ytick_13">
     <g id="line2d_24">
      <g>
       <use xlink:href="#m69379785ca" x="37.32" y="71.033538" style="stroke: #000000; stroke-width: 0.6"/>
      </g>
     </g>
    </g>
    <g id="text_13">
     <!-- Ratio / its layer 0-21 mean -->
     <g transform="translate(13.524063 156.891875) rotate(-90) scale(0.08 -0.08)">
      <defs>
       <path id="DejaVuSans-52" d="M 2841 2188 
Q 3044 2119 3236 1894 
Q 3428 1669 3622 1275 
L 4263 0 
L 3584 0 
L 2988 1197 
Q 2756 1666 2539 1819 
Q 2322 1972 1947 1972 
L 1259 1972 
L 1259 0 
L 628 0 
L 628 4666 
L 2053 4666 
Q 2853 4666 3247 4331 
Q 3641 3997 3641 3322 
Q 3641 2881 3436 2590 
Q 3231 2300 2841 2188 
z
M 1259 4147 
L 1259 2491 
L 2053 2491 
Q 2509 2491 2742 2702 
Q 2975 2913 2975 3322 
Q 2975 3731 2742 3939 
Q 2509 4147 2053 4147 
L 1259 4147 
z
" transform="scale(0.015625)"/>
       <path id="DejaVuSans-74" d="M 1172 4494 
L 1172 3500 
L 2356 3500 
L 2356 3053 
L 1172 3053 
L 1172 1153 
Q 1172 725 1289 603 
Q 1406 481 1766 481 
L 2356 481 
L 2356 0 
L 1766 0 
Q 1100 0 847 248 
Q 594 497 594 1153 
L 594 3053 
L 172 3053 
L 172 3500 
L 594 3500 
L 594 4494 
L 1172 4494 
z
" transform="scale(0.015625)"/>
       <path id="DejaVuSans-69" d="M 603 3500 
L 1178 3500 
L 1178 0 
L 603 0 
L 603 3500 
z
M 603 4863 
L 1178 4863 
L 1178 4134 
L 603 4134 
L 603 4863 
z
" transform="scale(0.015625)"/>
       <path id="DejaVuSans-6f" d="M 1959 3097 
Q 1497 3097 1228 2736 
Q 959 2375 959 1747 
Q 959 1119 1226 758 
Q 1494 397 1959 397 
Q 2419 397 2687 759 
Q 2956 1122 2956 1747 
Q 2956 2369 2687 2733 
Q 2419 3097 1959 3097 
z
M 1959 3584 
Q 2709 3584 3137 3096 
Q 3566 2609 3566 1747 
Q 3566 888 3137 398 
Q 2709 -91 1959 -91 
Q 1206 -91 779 398 
Q 353 888 353 1747 
Q 353 2609 779 3096 
Q 1206 3584 1959 3584 
z
" transform="scale(0.015625)"/>
       <path id="DejaVuSans-2f" d="M 1625 4666 
L 2156 4666 
L 531 -594 
L 0 -594 
L 1625 4666 
z
" transform="scale(0.015625)"/>
       <path id="DejaVuSans-73" d="M 2834 3397 
L 2834 2853 
Q 2591 2978 2328 3040 
Q 2066 3103 1784 3103 
Q 1356 3103 1142 2972 
Q 928 2841 928 2578 
Q 928 2378 1081 2264 
Q 1234 2150 1697 2047 
L 1894 2003 
Q 2506 1872 2764 1633 
Q 3022 1394 3022 966 
Q 3022 478 2636 193 
Q 2250 -91 1575 -91 
Q 1294 -91 989 -36 
Q 684 19 347 128 
L 347 722 
Q 666 556 975 473 
Q 1284 391 1588 391 
Q 1994 391 2212 530 
Q 2431 669 2431 922 
Q 2431 1156 2273 1281 
Q 2116 1406 1581 1522 
L 1381 1569 
Q 847 1681 609 1914 
Q 372 2147 372 2553 
Q 372 3047 722 3315 
Q 1072 3584 1716 3584 
Q 2034 3584 2315 3537 
Q 2597 3491 2834 3397 
z
" transform="scale(0.015625)"/>
       <path id="DejaVuSans-2d" d="M 313 2009 
L 1997 2009 
L 1997 1497 
L 313 1497 
L 313 2009 
z
" transform="scale(0.015625)"/>
       <path id="DejaVuSans-6d" d="M 3328 2828 
Q 3544 3216 3844 3400 
Q 4144 3584 4550 3584 
Q 5097 3584 5394 3201 
Q 5691 2819 5691 2113 
L 5691 0 
L 5113 0 
L 5113 2094 
Q 5113 2597 4934 2840 
Q 4756 3084 4391 3084 
Q 3944 3084 3684 2787 
Q 3425 2491 3425 1978 
L 3425 0 
L 2847 0 
L 2847 2094 
Q 2847 2600 2669 2842 
Q 2491 3084 2119 3084 
Q 1678 3084 1418 2786 
Q 1159 2488 1159 1978 
L 1159 0 
L 581 0 
L 581 3500 
L 1159 3500 
L 1159 2956 
Q 1356 3278 1631 3431 
Q 1906 3584 2284 3584 
Q 2666 3584 2933 3390 
Q 3200 3197 3328 2828 
z
" transform="scale(0.015625)"/>
       <path id="DejaVuSans-6e" d="M 3513 2113 
L 3513 0 
L 2938 0 
L 2938 2094 
Q 2938 2591 2744 2837 
Q 2550 3084 2163 3084 
Q 1697 3084 1428 2787 
Q 1159 2491 1159 1978 
L 1159 0 
L 581 0 
L 581 3500 
L 1159 3500 
L 1159 2956 
Q 1366 3272 1645 3428 
Q 1925 3584 2291 3584 
Q 2894 3584 3203 3211 
Q 3513 2838 3513 2113 
z
" transform="scale(0.015625)"/>
      </defs>
      <use xlink:href="#DejaVuSans-52"/>
      <use xlink:href="#DejaVuSans-61" transform="translate(67.232422 0)"/>
      <use xlink:href="#DejaVuSans-74" transform="translate(128.511719 0)"/>
      <use xlink:href="#DejaVuSans-69" transform="translate(167.720703 0)"/>
      <use xlink:href="#DejaVuSans-6f" transform="translate(195.503906 0)"/>
      <use xlink:href="#DejaVuSans-20" transform="translate(256.685547 0)"/>
      <use xlink:href="#DejaVuSans-2f" transform="translate(288.472656 0)"/>
      <use xlink:href="#DejaVuSans-20" transform="translate(322.164062 0)"/>
      <use xlink:href="#DejaVuSans-69" transform="translate(353.951172 0)"/>
      <use xlink:href="#DejaVuSans-74" transform="translate(381.734375 0)"/>
      <use xlink:href="#DejaVuSans-73" transform="translate(420.943359 0)"/>
      <use xlink:href="#DejaVuSans-20" transform="translate(473.042969 0)"/>
      <use xlink:href="#DejaVuSans-6c" transform="translate(504.830078 0)"/>
      <use xlink:href="#DejaVuSans-61" transform="translate(532.613281 0)"/>
      <use xlink:href="#DejaVuSans-79" transform="translate(593.892578 0)"/>
      <use xlink:href="#DejaVuSans-65" transform="translate(653.072266 0)"/>
      <use xlink:href="#DejaVuSans-72" transform="translate(714.595703 0)"/>
      <use xlink:href="#DejaVuSans-20" transform="translate(755.708984 0)"/>
      <use xlink:href="#DejaVuSans-30" transform="translate(787.496094 0)"/>
      <use xlink:href="#DejaVuSans-2d" transform="translate(851.119141 0)"/>
      <use xlink:href="#DejaVuSans-32" transform="translate(887.203125 0)"/>
      <use xlink:href="#DejaVuSans-31" transform="translate(950.826172 0)"/>
      <use xlink:href="#DejaVuSans-20" transform="translate(1014.449219 0)"/>
      <use xlink:href="#DejaVuSans-6d" transform="translate(1046.236328 0)"/>
      <use xlink:href="#DejaVuSans-65" transform="translate(1143.648438 0)"/>
      <use xlink:href="#DejaVuSans-61" transform="translate(1205.171875 0)"/>
      <use xlink:href="#DejaVuSans-6e" transform="translate(1266.451172 0)"/>
     </g>
    </g>
   </g>
   <g id="patch_3">
    <path d="M 163.564861 168.36 
L 243.9025 168.36 
L 243.9025 39.04 
L 163.564861 39.04 
z
" clip-path="url(#p13e697191e)" style="fill: #777777; opacity: 0.13"/>
   </g>
   <g id="line2d_25">
    <path d="M 40.189201 73.798637 
L 45.927604 74.375483 
L 51.666007 67.539884 
L 57.40441 64.948327 
L 63.142813 71.252838 
L 68.881215 73.470328 
L 74.619618 69.765258 
L 80.358021 67.244447 
L 86.096424 67.832703 
L 91.834826 64.700928 
L 97.573229 66.736188 
L 103.311632 67.611105 
L 109.050035 66.537816 
L 114.788437 65.713459 
L 120.52684 64.885081 
L 126.265243 63.088867 
L 132.003646 62.050961 
L 137.742049 61.244911 
L 143.480451 62.266245 
L 149.218854 64.714884 
L 154.957257 65.132732 
L 160.69566 68.536374 
L 166.434062 88.528956 
L 172.172465 101.44612 
L 177.910868 117.75085 
L 183.649271 123.852901 
L 189.387674 131.006414 
L 195.126076 132.944298 
L 200.864479 132.432517 
L 206.602882 129.140028 
L 212.341285 128.030128 
L 218.079688 130.922874 
L 223.81809 127.729213 
L 229.556493 147.429541 
L 235.294896 136.103203 
" clip-path="url(#p13e697191e)" style="fill: none; stroke: #000000; stroke-width: 1.6; stroke-linecap: square"/>
   </g>
   <g id="line2d_26">
    <path d="M 40.189201 73.823406 
L 45.927604 71.228044 
L 51.666007 65.548039 
L 57.40441 64.627018 
L 63.142813 67.423569 
L 68.881215 71.784372 
L 74.619618 65.758804 
L 80.358021 62.791102 
L 86.096424 63.919406 
L 91.834826 61.151237 
L 97.573229 64.57533 
L 103.311632 65.663249 
L 109.050035 64.754706 
L 114.788437 65.255901 
L 120.52684 64.918279 
L 126.265243 63.09201 
L 132.003646 61.149932 
L 137.742049 63.99021 
L 143.480451 67.200025 
L 149.218854 71.659123 
L 154.957257 73.728955 
L 160.69566 82.105409 
L 166.434062 100.51707 
L 172.172465 110.522347 
L 177.910868 123.382989 
L 183.649271 128.582871 
L 189.387674 133.895772 
L 195.126076 135.671234 
L 200.864479 136.626313 
L 206.602882 135.145209 
L 212.341285 136.926599 
L 218.079688 144.083835 
L 223.81809 145.554812 
L 229.556493 162.730434 
L 235.294896 148.208947 
" clip-path="url(#p13e697191e)" style="fill: none; stroke: #0072b2; stroke-width: 1.2; stroke-linecap: square"/>
   </g>
   <g id="line2d_27">
    <path d="M 40.189201 67.389176 
L 45.927604 74.895266 
L 51.666007 82.324295 
L 57.40441 84.698685 
L 63.142813 78.780687 
L 68.881215 70.859481 
L 74.619618 52.6016 
L 80.358021 50.139123 
L 86.096424 51.45561 
L 91.834826 53.016972 
L 97.573229 57.657724 
L 103.311632 59.534479 
L 109.050035 61.814407 
L 114.788437 61.993438 
L 120.52684 62.221335 
L 126.265243 65.514156 
L 132.003646 68.915619 
L 137.742049 70.57011 
L 143.480451 75.580173 
L 149.218854 80.836975 
L 154.957257 83.810909 
L 160.69566 93.012466 
L 166.434062 98.153046 
L 172.172465 104.515478 
L 177.910868 123.004272 
L 183.649271 129.717127 
L 189.387674 135.586969 
L 195.126076 135.073861 
L 200.864479 132.985909 
L 206.602882 130.97103 
L 212.341285 130.763501 
L 218.079688 134.226111 
L 223.81809 137.112877 
L 229.556493 143.172644 
L 235.294896 159.243823 
" clip-path="url(#p13e697191e)" style="fill: none; stroke-dasharray: 4.8,2.4; stroke-dashoffset: 0; stroke: #e69f00; stroke-width: 1.2"/>
   </g>
   <g id="patch_4">
    <path d="M 37.32 168.36 
L 37.32 39.04 
" style="fill: none; stroke: #555555; stroke-width: 0.6; stroke-linejoin: miter; stroke-linecap: square"/>
   </g>
   <g id="patch_5">
    <path d="M 37.32 168.36 
L 243.9025 168.36 
" style="fill: none; stroke: #555555; stroke-width: 0.6; stroke-linejoin: miter; stroke-linecap: square"/>
   </g>
   <g id="legend_1">
    <g id="line2d_28">
     <path d="M 69.366406 13.86625 
L 74.766406 13.86625 
L 80.166406 13.86625 
" style="fill: none; stroke: #000000; stroke-width: 1.6; stroke-linecap: square"/>
    </g>
    <g id="text_14">
     <!-- $I_{\mathrm{traj}}\,/\,I_{\mathrm{CoC}}$ -->
     <g transform="translate(84.966406 15.96625) scale(0.06 -0.06)">
      <defs>
       <path id="DejaVuSans-49" d="M 628 4666 
L 1259 4666 
L 1259 0 
L 628 0 
L 628 4666 
z
" transform="scale(0.015625)"/>
       <path id="DejaVuSans-6a" d="M 603 3500 
L 1178 3500 
L 1178 -63 
Q 1178 -731 923 -1031 
Q 669 -1331 103 -1331 
L -116 -1331 
L -116 -844 
L 38 -844 
Q 366 -844 484 -692 
Q 603 -541 603 -63 
L 603 3500 
z
M 603 4863 
L 1178 4863 
L 1178 4134 
L 603 4134 
L 603 4863 
z
" transform="scale(0.015625)"/>
       <path id="DejaVuSans-43" d="M 4122 4306 
L 4122 3641 
Q 3803 3938 3442 4084 
Q 3081 4231 2675 4231 
Q 1875 4231 1450 3742 
Q 1025 3253 1025 2328 
Q 1025 1406 1450 917 
Q 1875 428 2675 428 
Q 3081 428 3442 575 
Q 3803 722 4122 1019 
L 4122 359 
Q 3791 134 3420 21 
Q 3050 -91 2638 -91 
Q 1578 -91 968 557 
Q 359 1206 359 2328 
Q 359 3453 968 4101 
Q 1578 4750 2638 4750 
Q 3056 4750 3426 4639 
Q 3797 4528 4122 4306 
z
" transform="scale(0.015625)"/>
      </defs>
      <use xlink:href="#DejaVuSans-49" transform="translate(0 0.09375)"/>
      <use xlink:href="#DejaVuSans-74" transform="translate(30.449219 -16.3125) scale(0.7)"/>
      <use xlink:href="#DejaVuSans-72" transform="translate(57.895508 -16.3125) scale(0.7)"/>
      <use xlink:href="#DejaVuSans-61" transform="translate(86.674805 -16.3125) scale(0.7)"/>
      <use xlink:href="#DejaVuSans-6a" transform="translate(129.570312 -16.3125) scale(0.7)"/>
      <use xlink:href="#DejaVuSans-2f" transform="translate(167.988606 0.09375)"/>
      <use xlink:href="#DejaVuSans-49" transform="translate(217.915688 0.09375)"/>
      <use xlink:href="#DejaVuSans-43" transform="translate(248.364907 -16.3125) scale(0.7)"/>
      <use xlink:href="#DejaVuSans-6f" transform="translate(297.24186 -16.3125) scale(0.7)"/>
      <use xlink:href="#DejaVuSans-43" transform="translate(340.069009 -16.3125) scale(0.7)"/>
     </g>
    </g>
    <g id="line2d_29">
     <path d="M 69.366406 23.285313 
L 74.766406 23.285313 
L 80.166406 23.285313 
" style="fill: none; stroke: #0072b2; stroke-width: 1.2; stroke-linecap: square"/>
    </g>
    <g id="text_15">
     <!-- random readouts: expert door / head door -->
     <g transform="translate(84.966406 25.385313) scale(0.06 -0.06)">
      <defs>
       <path id="DejaVuSans-64" d="M 2906 2969 
L 2906 4863 
L 3481 4863 
L 3481 0 
L 2906 0 
L 2906 525 
Q 2725 213 2448 61 
Q 2172 -91 1784 -91 
Q 1150 -91 751 415 
Q 353 922 353 1747 
Q 353 2572 751 3078 
Q 1150 3584 1784 3584 
Q 2172 3584 2448 3432 
Q 2725 3281 2906 2969 
z
M 947 1747 
Q 947 1113 1208 752 
Q 1469 391 1925 391 
Q 2381 391 2643 752 
Q 2906 1113 2906 1747 
Q 2906 2381 2643 2742 
Q 2381 3103 1925 3103 
Q 1469 3103 1208 2742 
Q 947 2381 947 1747 
z
" transform="scale(0.015625)"/>
       <path id="DejaVuSans-75" d="M 544 1381 
L 544 3500 
L 1119 3500 
L 1119 1403 
Q 1119 906 1312 657 
Q 1506 409 1894 409 
Q 2359 409 2629 706 
Q 2900 1003 2900 1516 
L 2900 3500 
L 3475 3500 
L 3475 0 
L 2900 0 
L 2900 538 
Q 2691 219 2414 64 
Q 2138 -91 1772 -91 
Q 1169 -91 856 284 
Q 544 659 544 1381 
z
M 1991 3584 
L 1991 3584 
z
" transform="scale(0.015625)"/>
       <path id="DejaVuSans-3a" d="M 750 794 
L 1409 794 
L 1409 0 
L 750 0 
L 750 794 
z
M 750 3309 
L 1409 3309 
L 1409 2516 
L 750 2516 
L 750 3309 
z
" transform="scale(0.015625)"/>
       <path id="DejaVuSans-78" d="M 3513 3500 
L 2247 1797 
L 3578 0 
L 2900 0 
L 1881 1375 
L 863 0 
L 184 0 
L 1544 1831 
L 300 3500 
L 978 3500 
L 1906 2253 
L 2834 3500 
L 3513 3500 
z
" transform="scale(0.015625)"/>
       <path id="DejaVuSans-70" d="M 1159 525 
L 1159 -1331 
L 581 -1331 
L 581 3500 
L 1159 3500 
L 1159 2969 
Q 1341 3281 1617 3432 
Q 1894 3584 2278 3584 
Q 2916 3584 3314 3078 
Q 3713 2572 3713 1747 
Q 3713 922 3314 415 
Q 2916 -91 2278 -91 
Q 1894 -91 1617 61 
Q 1341 213 1159 525 
z
M 3116 1747 
Q 3116 2381 2855 2742 
Q 2594 3103 2138 3103 
Q 1681 3103 1420 2742 
Q 1159 2381 1159 1747 
Q 1159 1113 1420 752 
Q 1681 391 2138 391 
Q 2594 391 2855 752 
Q 3116 1113 3116 1747 
z
" transform="scale(0.015625)"/>
       <path id="DejaVuSans-68" d="M 3513 2113 
L 3513 0 
L 2938 0 
L 2938 2094 
Q 2938 2591 2744 2837 
Q 2550 3084 2163 3084 
Q 1697 3084 1428 2787 
Q 1159 2491 1159 1978 
L 1159 0 
L 581 0 
L 581 4863 
L 1159 4863 
L 1159 2956 
Q 1366 3272 1645 3428 
Q 1925 3584 2291 3584 
Q 2894 3584 3203 3211 
Q 3513 2838 3513 2113 
z
" transform="scale(0.015625)"/>
      </defs>
      <use xlink:href="#DejaVuSans-72"/>
      <use xlink:href="#DejaVuSans-61" transform="translate(41.113281 0)"/>
      <use xlink:href="#DejaVuSans-6e" transform="translate(102.392578 0)"/>
      <use xlink:href="#DejaVuSans-64" transform="translate(165.771484 0)"/>
      <use xlink:href="#DejaVuSans-6f" transform="translate(229.248047 0)"/>
      <use xlink:href="#DejaVuSans-6d" transform="translate(290.429688 0)"/>
      <use xlink:href="#DejaVuSans-20" transform="translate(387.841797 0)"/>
      <use xlink:href="#DejaVuSans-72" transform="translate(419.628906 0)"/>
      <use xlink:href="#DejaVuSans-65" transform="translate(458.492188 0)"/>
      <use xlink:href="#DejaVuSans-61" transform="translate(520.015625 0)"/>
      <use xlink:href="#DejaVuSans-64" transform="translate(581.294922 0)"/>
      <use xlink:href="#DejaVuSans-6f" transform="translate(644.771484 0)"/>
      <use xlink:href="#DejaVuSans-75" transform="translate(705.953125 0)"/>
      <use xlink:href="#DejaVuSans-74" transform="translate(769.332031 0)"/>
      <use xlink:href="#DejaVuSans-73" transform="translate(808.541016 0)"/>
      <use xlink:href="#DejaVuSans-3a" transform="translate(860.640625 0)"/>
      <use xlink:href="#DejaVuSans-20" transform="translate(894.332031 0)"/>
      <use xlink:href="#DejaVuSans-65" transform="translate(926.119141 0)"/>
      <use xlink:href="#DejaVuSans-78" transform="translate(985.892578 0)"/>
      <use xlink:href="#DejaVuSans-70" transform="translate(1045.072266 0)"/>
      <use xlink:href="#DejaVuSans-65" transform="translate(1108.548828 0)"/>
      <use xlink:href="#DejaVuSans-72" transform="translate(1170.072266 0)"/>
      <use xlink:href="#DejaVuSans-74" transform="translate(1211.185547 0)"/>
      <use xlink:href="#DejaVuSans-20" transform="translate(1250.394531 0)"/>
      <use xlink:href="#DejaVuSans-64" transform="translate(1282.181641 0)"/>
      <use xlink:href="#DejaVuSans-6f" transform="translate(1345.658203 0)"/>
      <use xlink:href="#DejaVuSans-6f" transform="translate(1406.839844 0)"/>
      <use xlink:href="#DejaVuSans-72" transform="translate(1468.021484 0)"/>
      <use xlink:href="#DejaVuSans-20" transform="translate(1509.134766 0)"/>
      <use xlink:href="#DejaVuSans-2f" transform="translate(1540.921875 0)"/>
      <use xlink:href="#DejaVuSans-20" transform="translate(1574.613281 0)"/>
      <use xlink:href="#DejaVuSans-68" transform="translate(1606.400391 0)"/>
      <use xlink:href="#DejaVuSans-65" transform="translate(1669.779297 0)"/>
      <use xlink:href="#DejaVuSans-61" transform="translate(1731.302734 0)"/>
      <use xlink:href="#DejaVuSans-64" transform="translate(1792.582031 0)"/>
      <use xlink:href="#DejaVuSans-20" transform="translate(1856.058594 0)"/>
      <use xlink:href="#DejaVuSans-64" transform="translate(1887.845703 0)"/>
      <use xlink:href="#DejaVuSans-6f" transform="translate(1951.322266 0)"/>
      <use xlink:href="#DejaVuSans-6f" transform="translate(2012.503906 0)"/>
      <use xlink:href="#DejaVuSans-72" transform="translate(2073.685547 0)"/>
     </g>
    </g>
    <g id="line2d_30">
     <path d="M 69.366406 32.092188 
L 74.766406 32.092188 
L 80.166406 32.092188 
" style="fill: none; stroke-dasharray: 4.8,2.4; stroke-dashoffset: 0; stroke: #e69f00; stroke-width: 1.2"/>
    </g>
    <g id="text_16">
     <!-- random readouts: bare cache / head door -->
     <g transform="translate(84.966406 34.192188) scale(0.06 -0.06)">
      <defs>
       <path id="DejaVuSans-62" d="M 3116 1747 
Q 3116 2381 2855 2742 
Q 2594 3103 2138 3103 
Q 1681 3103 1420 2742 
Q 1159 2381 1159 1747 
Q 1159 1113 1420 752 
Q 1681 391 2138 391 
Q 2594 391 2855 752 
Q 3116 1113 3116 1747 
z
M 1159 2969 
Q 1341 3281 1617 3432 
Q 1894 3584 2278 3584 
Q 2916 3584 3314 3078 
Q 3713 2572 3713 1747 
Q 3713 922 3314 415 
Q 2916 -91 2278 -91 
Q 1894 -91 1617 61 
Q 1341 213 1159 525 
L 1159 0 
L 581 0 
L 581 4863 
L 1159 4863 
L 1159 2969 
z
" transform="scale(0.015625)"/>
       <path id="DejaVuSans-63" d="M 3122 3366 
L 3122 2828 
Q 2878 2963 2633 3030 
Q 2388 3097 2138 3097 
Q 1578 3097 1268 2742 
Q 959 2388 959 1747 
Q 959 1106 1268 751 
Q 1578 397 2138 397 
Q 2388 397 2633 464 
Q 2878 531 3122 666 
L 3122 134 
Q 2881 22 2623 -34 
Q 2366 -91 2075 -91 
Q 1284 -91 818 406 
Q 353 903 353 1747 
Q 353 2603 823 3093 
Q 1294 3584 2113 3584 
Q 2378 3584 2631 3529 
Q 2884 3475 3122 3366 
z
" transform="scale(0.015625)"/>
      </defs>
      <use xlink:href="#DejaVuSans-72"/>
      <use xlink:href="#DejaVuSans-61" transform="translate(41.113281 0)"/>
      <use xlink:href="#DejaVuSans-6e" transform="translate(102.392578 0)"/>
      <use xlink:href="#DejaVuSans-64" transform="translate(165.771484 0)"/>
      <use xlink:href="#DejaVuSans-6f" transform="translate(229.248047 0)"/>
      <use xlink:href="#DejaVuSans-6d" transform="translate(290.429688 0)"/>
      <use xlink:href="#DejaVuSans-20" transform="translate(387.841797 0)"/>
      <use xlink:href="#DejaVuSans-72" transform="translate(419.628906 0)"/>
      <use xlink:href="#DejaVuSans-65" transform="translate(458.492188 0)"/>
      <use xlink:href="#DejaVuSans-61" transform="translate(520.015625 0)"/>
      <use xlink:href="#DejaVuSans-64" transform="translate(581.294922 0)"/>
      <use xlink:href="#DejaVuSans-6f" transform="translate(644.771484 0)"/>
      <use xlink:href="#DejaVuSans-75" transform="translate(705.953125 0)"/>
      <use xlink:href="#DejaVuSans-74" transform="translate(769.332031 0)"/>
      <use xlink:href="#DejaVuSans-73" transform="translate(808.541016 0)"/>
      <use xlink:href="#DejaVuSans-3a" transform="translate(860.640625 0)"/>
      <use xlink:href="#DejaVuSans-20" transform="translate(894.332031 0)"/>
      <use xlink:href="#DejaVuSans-62" transform="translate(926.119141 0)"/>
      <use xlink:href="#DejaVuSans-61" transform="translate(989.595703 0)"/>
      <use xlink:href="#DejaVuSans-72" transform="translate(1050.875 0)"/>
      <use xlink:href="#DejaVuSans-65" transform="translate(1089.738281 0)"/>
      <use xlink:href="#DejaVuSans-20" transform="translate(1151.261719 0)"/>
      <use xlink:href="#DejaVuSans-63" transform="translate(1183.048828 0)"/>
      <use xlink:href="#DejaVuSans-61" transform="translate(1238.029297 0)"/>
      <use xlink:href="#DejaVuSans-63" transform="translate(1299.308594 0)"/>
      <use xlink:href="#DejaVuSans-68" transform="translate(1354.289062 0)"/>
      <use xlink:href="#DejaVuSans-65" transform="translate(1417.667969 0)"/>
      <use xlink:href="#DejaVuSans-20" transform="translate(1479.191406 0)"/>
      <use xlink:href="#DejaVuSans-2f" transform="translate(1510.978516 0)"/>
      <use xlink:href="#DejaVuSans-20" transform="translate(1544.669922 0)"/>
      <use xlink:href="#DejaVuSans-68" transform="translate(1576.457031 0)"/>
      <use xlink:href="#DejaVuSans-65" transform="translate(1639.835938 0)"/>
      <use xlink:href="#DejaVuSans-61" transform="translate(1701.359375 0)"/>
      <use xlink:href="#DejaVuSans-64" transform="translate(1762.638672 0)"/>
      <use xlink:href="#DejaVuSans-20" transform="translate(1826.115234 0)"/>
      <use xlink:href="#DejaVuSans-64" transform="translate(1857.902344 0)"/>
      <use xlink:href="#DejaVuSans-6f" transform="translate(1921.378906 0)"/>
      <use xlink:href="#DejaVuSans-6f" transform="translate(1982.560547 0)"/>
      <use xlink:href="#DejaVuSans-72" transform="translate(2043.742188 0)"/>
     </g>
    </g>
   </g>
  </g>
 </g>
 <defs>
  <clipPath id="p13e697191e">
   <rect x="37.32" y="39.04" width="206.5825" height="129.32"/>
  </clipPath>
 </defs>
</svg>
